<svg xmlns="http://www.w3.org/2000/svg" viewBox="-35 -15 370 355">
  <rect x="-35" y="-15" width="370" height="355" rx="60" fill="#143C50"/>
  <path fill="#FFFFFF" d="M200.046509,19.058231 C215.031082,11.851272 230.319061,7.623657 246.712982,9.184643 C270.067230,11.408371 286.770660,25.630732 294.074768,48.985294 C298.794739,64.077232 299.123566,79.601158 297.525177,95.029602 C290.789185,160.048889 271.425110,221.566818 244.725937,280.937958 C239.868347,291.739777 233.813553,301.924744 225.199677,310.316895 C215.219879,320.039764 203.373840,319.375793 195.436646,307.816437 C191.744934,302.440002 189.698318,295.907593 187.083771,289.822815 C179.674500,272.579468 172.367294,255.292297 164.983505,238.037949 C164.397522,236.668625 163.565872,235.398270 162.789871,234.117371 C156.239014,223.304443 147.231857,222.023956 139.818420,232.315079 C133.182907,241.526321 128.052948,251.966980 123.277367,262.334442 C117.998360,273.794739 113.893585,285.794952 109.237137,297.544037 C108.441780,299.550903 107.502953,301.507202 106.531372,303.436951 C98.384407,319.618469 87.235329,321.634705 74.267311,308.838928 C64.163719,298.869568 57.575142,286.445221 51.856190,273.635010 C30.046553,224.782410 15.193380,173.740387 5.425621,121.257843 C1.334404,99.275597 -0.374753,76.851593 5.148368,54.777634 C7.176358,46.672478 10.283574,38.455547 14.679197,31.398792 C26.191502,12.916882 44.296276,7.910692 64.875305,9.437977 C80.661278,10.609543 95.305244,16.237074 110.156792,21.141256 C119.772781,24.316587 129.627258,26.769293 139.372650,29.553616 C141.019989,30.024271 142.656006,30.534550 144.214874,31.429367 C133.171722,32.901978 122.533195,30.725697 111.936729,28.278141 C96.395653,24.688486 81.145683,19.785337 64.939224,19.505453 C33.066452,18.955015 15.507390,36.651497 13.060284,67.280838 C11.122808,91.531349 14.594001,115.506775 19.038277,139.280838 C28.761759,191.295319 45.881302,240.821732 70.126595,287.842224 C72.997215,293.409393 76.823425,298.622803 80.922195,303.384247 C86.658218,310.047699 93.331062,309.618561 97.511505,301.892975 C101.758820,294.043854 104.596123,285.437378 108.141205,277.201416 C114.373444,262.722656 120.435997,248.162277 127.097054,233.882095 C129.008972,229.783295 132.423172,226.221344 135.683960,222.946304 C145.521606,213.065720 156.718292,213.582901 166.002655,224.107086 C174.981400,234.284882 180.055237,246.620651 184.994583,259.000244 C190.477814,272.742950 195.638123,286.618439 201.346344,300.265747 C204.024734,306.669250 207.897583,308.656586 212.976852,306.991180 C215.413910,306.192139 218.174973,304.857086 219.643860,302.903534 C224.917313,295.889984 230.649323,288.977539 234.504013,281.184052 C249.527832,250.808807 259.544434,218.537231 268.912109,186.078064 C276.394226,160.152374 282.648254,133.929077 285.598206,107.061386 C287.435211,90.330269 288.745697,73.470306 285.238892,56.795345 C280.387756,33.728065 264.579803,20.946489 240.746063,20.074739 C226.942017,19.569836 214.051392,23.221663 201.511749,28.447544 C186.319244,34.779007 171.323853,41.606712 155.986725,47.558887 C147.256943,50.946835 137.991501,52.825500 128.319290,50.711586 C132.383591,49.773876 136.618362,49.282223 140.477356,47.807335 C149.003632,44.548641 157.527435,41.174805 165.710098,37.151943 C177.203629,31.501341 188.386368,25.218613 200.046509,19.058231 z"/>
  <path fill="#A9B7D2" d="M110.160927,178.845978 C91.185204,170.601852 75.072411,158.797272 60.543472,144.418671 C62.257847,145.248703 64.012886,146.004684 65.680176,146.920441 C79.519287,154.521545 92.926987,163.065933 107.258896,169.578232 C134.679031,182.037735 162.851822,181.153381 190.118591,169.243195 C205.740677,162.419434 220.300842,153.164017 235.335388,144.996506 C236.681915,144.265015 238.001160,143.483292 239.333084,142.724915 C239.644699,143.166031 239.956329,143.607147 240.267960,144.048279 C234.704224,148.624405 229.306458,153.422058 223.547150,157.737167 C202.112610,173.796844 178.762497,185.239075 151.430023,186.539948 C137.226471,187.215958 123.651321,184.232468 110.160927,178.845978 z"/>
</svg>
